<?xml version="1.0" encoding="UTF-8" standalone="no"?>
<svg width="5163px" height="988px" viewBox="0 0 5163 988" version="1.1" xmlns="http://www.w3.org/2000/svg" xmlns:xlink="http://www.w3.org/1999/xlink">
    <!-- Generator: Sketch 42 (36781) - http://www.bohemiancoding.com/sketch -->
    <title>logo - light backgrounds - length wise copy</title>
    <desc>Created with Sketch.</desc>
    <defs>
        <linearGradient x1="10.3426177%" y1="22.7956931%" x2="92.9862256%" y2="75.1681371%" id="linearGradient-1">
            <stop stop-color="#8D0092" offset="0%"></stop>
            <stop stop-color="#FF6666" offset="100%"></stop>
        </linearGradient>
        <linearGradient x1="6.72453142%" y1="26.5097789%" x2="91.3741544%" y2="77.5991603%" id="linearGradient-2">
            <stop stop-color="#3525FF" offset="0%"></stop>
            <stop stop-color="#FF7DE9" offset="100%"></stop>
        </linearGradient>
    </defs>
    <g id="brand-guidelines" stroke="none" stroke-width="1" fill="none" fill-rule="evenodd">
        <g id="logo---light-backgrounds---length-wise-copy">
            <g id="Group-7">
                <g id="Group-3">
                    <g id="Group">
                        <g id="Group-6">
                            <ellipse id="Oval-1" fill="url(#linearGradient-1)" cx="541.251534" cy="508.606924" rx="480.960224" ry="478.60866"></ellipse>
                            <ellipse id="Oval-1-Copy" fill="url(#linearGradient-2)" opacity="0.795475746" cx="480.960224" cy="478.60866" rx="480.960224" ry="478.60866"></ellipse>
                        </g>
                        <g id="Group-2" transform="translate(233.000000, 138.000000)">
                            <g id="Group-5" opacity="0.604361007" transform="translate(18.271447, 15.670714)" fill-opacity="0.564453125" fill="#3C0062">
                                <path d="M48.7806527,634.17589 C75.4517746,656.576302 117.557211,678.56493 141.493061,687.610371 C165.428912,696.655812 183.876026,701.118648 183.876026,701.118648 C183.876026,701.118648 174.326877,685.01392 169.948574,671.073621 C166.222524,659.210064 167.496036,649.562495 168.133965,645.789753 C204.908182,627.03529 230.134382,588.467165 230.134382,543.933809 C230.134382,480.985277 179.731867,429.955409 117.557215,429.955409 C55.3825617,429.955409 4.98004698,480.985277 4.98004698,543.933809 C4.98004698,580.661134 22.1095308,611.775478 48.7806527,634.17589 Z" id="Oval-71" transform="translate(117.557215, 565.537029) rotate(-2.000000) translate(-117.557215, -565.537029) "></path>
                                <path d="M354.245988,74.8161318 L354.245988,485.564449 C354.245988,519.570188 348.684624,549.672471 337.642915,575.969527 C326.647094,602.157296 307.75465,628.210026 280.814655,654.065152 C275.148395,659.704721 272.22623,666.689489 272.22623,674.369961 C272.22623,685.430675 278.132511,694.932916 288.302755,702.724468 L297.200696,709.541293 L306.446908,703.200855 C338.605986,681.148296 364.566191,660.437934 384.360685,640.990088 C404.629724,621.076008 420.355473,599.918565 431.462145,577.518724 C442.575631,555.10514 449.766239,530.177749 453.064136,502.806685 C456.239212,476.454967 457.816589,445.035319 457.816589,408.500975 L457.816589,74.8161318 C457.816589,69.5033015 458.916166,67.1913822 461.059393,65.8474126 C465.805255,62.8713901 477.204673,59.6115578 494.387888,56.8363857 C508.229746,55.6210077 515.849437,43.8928569 515.849437,28.5780473 C515.849437,24.3251429 515.216403,19.281401 514.002486,13.2364202 L511.344427,5.00222086e-12 L497.823051,0.928728679 C482.991719,1.94743295 466.994735,2.83963269 449.833469,3.60493274 C432.766976,4.36600642 418.159944,4.74551478 406.031288,4.74551478 C394.416183,4.74551478 379.799638,4.36575926 362.209156,3.60405587 C344.507981,2.83755932 327.453439,1.94359038 311.045398,0.922244797 L297.605859,0.0856785169 L294.965006,13.2364202 C293.751089,19.281401 293.118055,24.3251429 293.118055,28.5780473 C293.118055,42.8476212 299.730517,54.0432401 313.250089,56.7361938 C332.799938,59.6750468 345.327767,62.9946279 350.647145,66.1002437 C353.134409,67.5523845 354.245988,69.7283563 354.245988,74.8161318 L354.245988,74.8161318 Z" id="J" fill-rule="nonzero"></path>
                            </g>
                            <g id="Group-5-Copy" transform="translate(0.828489, 0.110423)" fill="#FFFFFF">
                                <path d="M47.2379643,636.578936 C19.8013266,615.122978 1.59640263,584.625398 0.31463748,547.920447 C-1.88223461,485.010261 46.7086596,432.252457 108.845437,430.082593 C170.982215,427.912729 223.134943,477.152488 225.331815,540.062674 C226.886006,584.568901 203.021182,623.993913 166.923888,644.020353 C166.418014,647.81306 165.481973,657.499197 169.619786,669.22549 C174.481931,683.004496 184.58731,698.766154 184.58731,698.766154 C184.58731,698.766154 165.995682,694.949831 141.758731,686.745249 C117.521781,678.540668 74.6746019,658.034893 47.2379643,636.578936 Z M153.171511,540.013546 C153.171511,548.299638 159.88724,555.013546 168.171511,555.013546 C176.457604,555.013546 183.171511,548.297817 183.171511,540.013546 C183.171511,531.727453 176.455782,525.013546 168.171511,525.013546 C159.885418,525.013546 153.171511,531.729274 153.171511,540.013546 Z M96.7072483,540.013546 C96.7072483,548.299638 103.422977,555.013546 111.707248,555.013546 C119.993341,555.013546 126.707248,548.297817 126.707248,540.013546 C126.707248,531.727453 119.991519,525.013546 111.707248,525.013546 C103.421156,525.013546 96.7072483,531.729274 96.7072483,540.013546 Z M40.2429853,540.013546 C40.2429853,548.299638 46.9587141,555.013546 55.2429853,555.013546 C63.5290781,555.013546 70.2429853,548.297817 70.2429853,540.013546 C70.2429853,531.727453 63.5272566,525.013546 55.2429853,525.013546 C46.9568926,525.013546 40.2429853,531.729274 40.2429853,540.013546 Z" id="Combined-Shape"></path>
                                <path d="M350.245988,74.8161318 L350.245988,485.564449 C350.245988,519.570188 344.684624,549.672471 333.642915,575.969527 C322.647094,602.157296 303.75465,628.210026 276.814655,654.065152 C271.148395,659.704721 268.22623,666.689489 268.22623,674.369961 C268.22623,685.430675 274.132511,694.932916 284.302755,702.724468 L293.200696,709.541293 L302.446908,703.200855 C334.605986,681.148296 360.566191,660.437934 380.360685,640.990088 C400.629724,621.076008 416.355473,599.918565 427.462145,577.518724 C438.575631,555.10514 445.766239,530.177749 449.064136,502.806685 C452.239212,476.454967 453.816589,445.035319 453.816589,408.500975 L453.816589,74.8161318 C453.816589,69.5033015 454.916166,67.1913822 457.059393,65.8474126 C461.805255,62.8713901 473.204673,59.6115578 490.387888,56.8363857 C504.229746,55.6210077 511.849437,43.8928569 511.849437,28.5780473 C511.849437,24.3251429 511.216403,19.281401 510.002486,13.2364202 L507.344427,4.54747351e-12 L493.823051,0.928728679 C478.991719,1.94743295 462.994735,2.83963269 445.833469,3.60493274 C428.766976,4.36600642 414.159944,4.74551478 402.031288,4.74551478 C390.416183,4.74551478 375.799638,4.36575926 358.209156,3.60405587 C340.507981,2.83755932 323.453439,1.94359038 307.045398,0.922244797 L293.605859,0.0856785169 L290.965006,13.2364202 C289.751089,19.281401 289.118055,24.3251429 289.118055,28.5780473 C289.118055,42.8476212 295.730517,54.0432401 309.250089,56.7361938 C328.799938,59.6750468 341.327767,62.9946279 346.647145,66.1002437 C349.134409,67.5523845 350.245988,69.7283563 350.245988,74.8161318 L350.245988,74.8161318 Z" id="J" fill-rule="nonzero"></path>
                            </g>
                        </g>
                    </g>
                </g>
                <g id="Group-4" transform="translate(1184.000000, 194.000000)" fill="#221E38">
                    <path d="M321.428571,5.68434189e-14 L187.142857,5.68434189e-14 L187.142857,388.571429 C187.142857,447.857143 157.857143,471.428571 119.285714,471.428571 C85,471.428571 42.8571429,431.428571 42.8571429,431.428571 L0,543.571429 C0,543.571429 53.5714286,600 137.857143,600 C255.714286,600 321.428571,538.571429 321.428571,422.857143 L321.428571,5.68434189e-14 Z M856.153846,5.68434189e-14 L721.868132,5.68434189e-14 L721.868132,340.714286 C721.868132,439.285714 691.868132,467.857143 626.153846,467.857143 C560.43956,467.857143 530.43956,439.285714 530.43956,340.714286 L530.43956,5.68434189e-14 L396.153846,5.68434189e-14 L396.153846,380 C396.153846,525.714286 476.153846,600 626.153846,600 C776.153846,600 856.153846,525.714286 856.153846,380 L856.153846,5.68434189e-14 Z M1425.16484,589.285714 L1559.45055,589.285714 L1506.59341,5.68434189e-14 L1363.73626,5.68434189e-14 L1233.02198,340 L1102.30769,5.68434189e-14 L959.450549,5.68434189e-14 L906.593407,589.285714 L1040.87912,589.285714 L1068.73626,240 L1072.30769,240 L1193.02198,585.714286 L1273.02198,585.714286 L1393.73626,240 L1397.30769,240 L1425.16484,589.285714 Z M1617.03297,5.68434189e-14 L1832.03297,5.68434189e-14 C1947.03297,5.68434189e-14 2033.46154,59.2857143 2033.46154,181.428571 C2033.46154,302.857143 1947.03297,370.714286 1832.03297,370.714286 L1751.31868,370.714286 L1751.31868,589.285714 L1617.03297,589.285714 L1617.03297,5.68434189e-14 Z M1751.31868,263.571429 L1789.17582,263.571429 C1842.03297,263.571429 1892.03297,245.714286 1892.03297,185.714286 C1892.03297,125 1842.03297,107.142857 1789.17582,107.142857 L1751.31868,107.142857 L1751.31868,263.571429 Z M2433.18681,5.68434189e-14 L2096.04396,5.68434189e-14 L2096.04396,589.285714 L2433.18681,589.285714 L2433.18681,471.428571 L2230.32967,471.428571 L2230.32967,352.857143 L2424.61538,352.857143 L2424.61538,235 L2230.32967,235 L2230.32967,117.857143 L2433.18681,117.857143 L2433.18681,5.68434189e-14 Z M2513.62637,5.68434189e-14 L2724.34066,5.68434189e-14 C2833.62637,5.68434189e-14 2916.48352,59.2857143 2916.48352,175 C2916.48352,263.571429 2867.91209,322.857143 2795.76923,345.714286 L2998.62637,589.285714 L2827.91209,589.285714 L2647.91209,356.428571 L2647.91209,589.285714 L2513.62637,589.285714 L2513.62637,5.68434189e-14 Z M2647.91209,261.428571 L2663.62637,261.428571 C2714.34066,261.428571 2775.05495,257.857143 2775.05495,184.285714 C2775.05495,110.714286 2714.34066,107.142857 2663.62637,107.142857 L2647.91209,107.142857 L2647.91209,261.428571 Z M3109.78022,436.428571 C3064.78022,436.428571 3028.35165,472.857143 3028.35165,518.571429 C3028.35165,563.571429 3064.78022,600 3109.78022,600 C3155.49451,600 3191.92308,563.571429 3191.92308,518.571429 C3191.92308,472.857143 3155.49451,436.428571 3109.78022,436.428571 Z M3580.21978,5.68434189e-14 L3818.07692,589.285714 L3673.79121,589.285714 L3630.21978,471.428571 L3405.93407,471.428571 L3362.36264,589.285714 L3218.07692,589.285714 L3455.93407,5.68434189e-14 L3580.21978,5.68434189e-14 Z M3584.50549,353.571429 L3518.79121,182.142857 L3517.36264,182.142857 L3451.64835,353.571429 L3584.50549,353.571429 Z M3978.51648,5.68434189e-14 L3844.23077,5.68434189e-14 L3844.23077,589.285714 L3978.51648,589.285714 L3978.51648,5.68434189e-14 Z" id="JUMPER.AI"></path>
                </g>
            </g>
        </g>
    </g>
</svg>